<svg width="2031" height="1248" viewBox="0 0 2031 1248" fill="none" xmlns="http://www.w3.org/2000/svg">
<g clip-path="url(#clip0_49_366)">
<rect y="-0.0117188" width="2036" height="1248" fill="black"/>
<g filter="url(#filter0_f_49_366)">
<ellipse cx="732.829" cy="212.2" rx="732.829" ry="212.2" transform="matrix(0.844352 -0.535789 0.465043 0.885288 903.717 582.283)" fill="#63C1AB" fill-opacity="0.5"/>
</g>
<g filter="url(#filter1_f_49_366)">
<ellipse cx="569.6" cy="196.871" rx="569.6" ry="196.871" transform="matrix(0.844352 -0.535789 0.465043 0.885288 886.241 498.408)" fill="#63C1AB" fill-opacity="0.5"/>
</g>
<g filter="url(#filter2_f_49_366)">
<ellipse cx="404.989" cy="99.3003" rx="404.989" ry="99.3003" transform="matrix(0.844352 -0.535789 0.465043 0.885288 974.812 497.633)" fill="#5AE8C6" fill-opacity="0.5"/>
</g>
<g filter="url(#filter3_f_49_366)">
<ellipse cx="885.336" cy="149.183" rx="885.336" ry="149.183" transform="matrix(0.981734 -0.190258 0.158405 0.987374 720 649.573)" fill="#951490" fill-opacity="0.5"/>
</g>
<g filter="url(#filter4_f_49_366)">
<ellipse cx="685.409" cy="80.4134" rx="685.409" ry="80.4134" transform="matrix(0.959267 -0.282502 0.236856 0.971545 1153 678.621)" fill="#FF48F8" fill-opacity="0.4"/>
</g>
<path d="M1622.89 30.1943C1622.9 30.2907 1622.98 30.3817 1623.02 30.4661" stroke="white" stroke-opacity="0.4" stroke-width="2" stroke-linecap="round"/>
<path d="M1660.72 13.6177C1660.83 13.6332 1660.8 13.6615 1660.84 13.7528" stroke="white" stroke-opacity="0.4" stroke-width="2" stroke-linecap="round"/>
<path d="M1674.81 27.748V28.0198" stroke="white" stroke-opacity="0.4" stroke-width="2" stroke-linecap="round"/>
<path d="M1646.5 49.0806V49.2161" stroke="white" stroke-opacity="0.4" stroke-width="2" stroke-linecap="round"/>
<path d="M1714.8 21.9438V22.3128" stroke="white" stroke-opacity="0.4" stroke-width="2" stroke-linecap="round"/>
<path d="M1654.8 51.2974C1654.89 51.3091 1654.93 51.3543 1655 51.4105" stroke="white" stroke-opacity="0.4" stroke-width="5" stroke-linecap="round"/>
<path d="M1762.03 72.623C1762.04 72.7273 1762.07 72.698 1762.14 72.7362" stroke="white" stroke-opacity="0.4" stroke-width="5" stroke-linecap="round"/>
<path d="M1754.06 143.085C1754.08 143.336 1754.26 143.529 1754.35 143.733" stroke="white" stroke-opacity="0.4" stroke-width="6" stroke-linecap="round"/>
<path d="M1701.89 117.979C1701.92 118.245 1702.56 118.465 1702.77 118.465" stroke="white" stroke-opacity="0.4" stroke-width="6" stroke-linecap="round"/>
<path d="M1668.5 122.463V122.753" stroke="white" stroke-opacity="0.4" stroke-width="6" stroke-linecap="round"/>
<path d="M1732.87 152.255C1732.87 151.283 1732.26 150.608 1731.46 150.316" stroke="white" stroke-opacity="0.4" stroke-width="7" stroke-linecap="round"/>
<path d="M1715.45 132.384C1715.48 132.137 1715.67 131.905 1715.77 131.689" stroke="white" stroke-opacity="0.6" stroke-width="7" stroke-linecap="round"/>
<path d="M1754 195.934H1754.95" stroke="white" stroke-opacity="0.6" stroke-width="7" stroke-linecap="round"/>
<path d="M1717.99 86.1719C1718.02 86.4206 1718.21 86.6557 1718.31 86.8736" stroke="white" stroke-opacity="0.3" stroke-width="4" stroke-linecap="round"/>
<path d="M1632.76 90.0308H1633.08" stroke="white" stroke-opacity="0.3" stroke-width="4" stroke-linecap="round"/>
<path d="M1577.83 98.3545V99.2417" stroke="white" stroke-opacity="0.3" stroke-width="4" stroke-linecap="round"/>
<path d="M1567.01 4.53369V4.81544" stroke="white" stroke-opacity="0.3" stroke-linecap="round"/>
<path d="M1499.85 48.6265C1499.85 48.8106 1499.84 48.8337 1499.98 48.9082" stroke="white" stroke-opacity="0.3" stroke-linecap="round"/>
<path d="M1579.57 48.7676H1579.7" stroke="white" stroke-opacity="0.3" stroke-linecap="round"/>
<path d="M1566.76 14.6768V15.0994" stroke="white" stroke-opacity="0.3" stroke-linecap="round"/>
<path d="M1373.72 116.647C1373.74 116.788 1373.88 116.857 1373.98 116.932" stroke="white" stroke-opacity="0.3" stroke-linecap="round"/>
<path d="M1447.99 52.5884V52.9483" stroke="white" stroke-opacity="0.3" stroke-linecap="round"/>
<path d="M1851.37 54.5684V54.8295" stroke="white" stroke-opacity="0.3" stroke-linecap="round"/>
<path d="M1420.24 96.5273H1420.68" stroke="white" stroke-opacity="0.3" stroke-linecap="round"/>
<path d="M1656.3 51.708V51.9228" stroke="white" stroke-opacity="0.3" stroke-linecap="round"/>
<path d="M1575.9 100.404H1576.1" stroke="white" stroke-opacity="0.3" stroke-linecap="round"/>
<line y1="-0.5" x2="64.8744" y2="-0.5" transform="matrix(0.0924442 -0.995718 0.99377 0.111453 1755.36 139.058)" stroke="white" stroke-opacity="0.1"/>
<line y1="-0.5" x2="64.0195" y2="-0.5" transform="matrix(0.693222 0.720724 -0.65233 0.757935 1715.78 24.3662)" stroke="white" stroke-opacity="0.1"/>
<line y1="-0.5" x2="65.7008" y2="-0.5" transform="matrix(-0.182563 -0.983194 0.975755 -0.218864 1667.8 119.284)" stroke="white" stroke-opacity="0.1"/>
<line y1="-0.5" x2="40.1744" y2="-0.5" transform="matrix(-0.955396 0.295329 -0.247907 -0.968784 1758.96 74.4614)" stroke="white" stroke-opacity="0.1"/>
<line y1="-0.5" x2="105.031" y2="-0.5" transform="matrix(-0.982117 -0.188272 0.156733 -0.987641 1758.96 71.8247)" stroke="white" stroke-opacity="0.1"/>
<line y1="-0.5" x2="85.8043" y2="-0.5" transform="matrix(-0.852715 0.522376 -0.452293 -0.891869 1652.21 52.0503)" stroke="white" stroke-opacity="0.1"/>
<line y1="-0.5" x2="87.4268" y2="-0.5" transform="matrix(-0.974085 -0.226183 0.188766 -0.982022 1663.97 118.665)" stroke="white" stroke-opacity="0.1"/>
<path d="M1542.67 463.605H1543.88" stroke="white" stroke-opacity="0.5" stroke-width="10" stroke-linecap="round"/>
<path d="M1685.71 384.662V385.331" stroke="white" stroke-opacity="0.5" stroke-width="10" stroke-linecap="round"/>
<path d="M1626.67 297.691V299.029" stroke="white" stroke-opacity="0.5" stroke-width="10" stroke-linecap="round"/>
<path d="M1647.36 548.569V549.907" stroke="white" stroke-opacity="0.5" stroke-width="10" stroke-linecap="round"/>
<path d="M1429.45 546.562H1430.06" stroke="white" stroke-opacity="0.5" stroke-width="10" stroke-linecap="round"/>
<path d="M1376.49 412.761H1378.32" stroke="white" stroke-opacity="0.5" stroke-width="10" stroke-linecap="round"/>
<path d="M1481.8 292.338H1482.41" stroke="white" stroke-opacity="0.5" stroke-width="10" stroke-linecap="round"/>
<path d="M1390.65 320.206C1390.65 319.488 1390.44 321.621 1390.33 322.329" stroke="white" stroke-opacity="0.6" stroke-width="13" stroke-linecap="round"/>
<path d="M1581.74 215.441H1582.5" stroke="white" stroke-opacity="0.6" stroke-width="13" stroke-linecap="round"/>
<path d="M1244 477.667C1244.43 477.727 1244.52 478.529 1244.76 478.92" stroke="white" stroke-opacity="0.6" stroke-width="13" stroke-linecap="round"/>
<path d="M1285.77 295.009C1286.25 295.075 1286.44 295.541 1286.62 295.941" stroke="white" stroke-opacity="0.6" stroke-width="8" stroke-linecap="round"/>
<path d="M1704.99 505.989C1705.51 506.061 1706.04 506.765 1706.49 507.09" stroke="white" stroke-opacity="0.6" stroke-width="8" stroke-linecap="round"/>
<path d="M1291.29 629.114C1291.59 629.486 1291.65 629.718 1292.03 629.925" stroke="white" stroke-opacity="0.6" stroke-width="4" stroke-linecap="round"/>
<path d="M1373.12 473.855V474.108" stroke="white" stroke-opacity="0.6" stroke-width="4" stroke-linecap="round"/>
<path d="M1380.95 411.125C1380.98 411.358 1381.02 411.292 1381.18 411.377" stroke="white" stroke-opacity="0.6" stroke-width="4" stroke-linecap="round"/>
<path d="M1378.03 321.916C1378.43 321.916 1378.77 321.951 1378.95 322.35" stroke="white" stroke-opacity="0.6" stroke-width="4" stroke-linecap="round"/>
<path d="M1581.67 310.183C1581.7 310.412 1581.88 310.629 1581.97 310.829" stroke="white" stroke-opacity="0.6" stroke-width="4" stroke-linecap="round"/>
<path d="M1491.11 289.177C1491.15 289.544 1491.44 289.684 1491.7 289.823" stroke="white" stroke-opacity="0.6" stroke-width="4" stroke-linecap="round"/>
<path d="M1512.57 364.801C1512.91 364.847 1512.98 365.468 1513.16 365.771" stroke="white" stroke-opacity="0.6" stroke-width="4" stroke-linecap="round"/>
<path d="M1502.28 352.196C1502.99 352.196 1503.22 352.727 1503.75 353.166" stroke="white" stroke-opacity="0.6" stroke-width="4" stroke-linecap="round"/>
<path d="M1492.48 520.636C1492.92 520.636 1492.98 520.615 1493.15 521.002" stroke="white" stroke-opacity="0.6" stroke-width="4" stroke-linecap="round"/>
<path d="M1601.82 402.301H1602.49" stroke="white" stroke-opacity="0.6" stroke-width="4" stroke-linecap="round"/>
<path d="M1647.49 453.958C1647.8 453.996 1647.9 454.142 1648.15 454.324" stroke="white" stroke-opacity="0.6" stroke-width="4" stroke-linecap="round"/>
<path d="M1696.15 270.777C1696.21 271.295 1697.39 271.51 1697.82 271.51" stroke="white" stroke-opacity="0.6" stroke-width="4" stroke-linecap="round"/>
<path d="M1691.15 291.66H1692.15" stroke="white" stroke-opacity="0.6" stroke-width="4" stroke-linecap="round"/>
<path d="M1391.33 151.658V152.108" stroke="white" stroke-opacity="0.6" stroke-width="4" stroke-linecap="round"/>
<path d="M1733.35 717.056C1733.44 717.84 1733.61 717.619 1734.13 717.906" stroke="white" stroke-opacity="0.6" stroke-width="4" stroke-linecap="round"/>
<path d="M1304.89 147.56C1305 147.699 1305.01 147.783 1305.06 147.948" stroke="white" stroke-opacity="0.2" stroke-linecap="round"/>
<path d="M1374.4 252.441C1374.46 252.997 1374.9 253.211 1375.29 253.421" stroke="white" stroke-opacity="0.2" stroke-linecap="round"/>
<path d="M1477.46 276.823V277.262" stroke="white" stroke-opacity="0.2" stroke-linecap="round"/>
<path d="M1337.48 641.471C1337.74 641.72 1337.9 641.771 1338.04 642.083" stroke="white" stroke-opacity="0.2" stroke-linecap="round"/>
<path d="M1184.97 587.332C1185.02 587.775 1185.5 587.638 1185.81 587.638" stroke="white" stroke-opacity="0.2" stroke-linecap="round"/>
<path d="M1295.46 452.441H1295.74" stroke="white" stroke-opacity="0.2" stroke-linecap="round"/>
<path d="M1177.46 349.056C1177.79 349.101 1177.74 349.363 1177.74 349.668" stroke="white" stroke-opacity="0.2" stroke-linecap="round"/>
<path d="M1405.93 321.063C1405.93 321.683 1406.28 322.307 1406.75 322.57" stroke="white" stroke-opacity="0.2" stroke-linecap="round"/>
<path d="M1393.32 340.348H1394.14" stroke="white" stroke-opacity="0.2" stroke-linecap="round"/>
<path d="M1387.01 409.355H1387.56" stroke="white" stroke-opacity="0.2" stroke-linecap="round"/>
<path d="M1386.47 400.918C1386.72 400.883 1386.65 400.82 1386.74 400.616" stroke="white" stroke-opacity="0.2" stroke-linecap="round"/>
<path d="M1553.16 464.5H1553.98" stroke="white" stroke-opacity="0.2" stroke-linecap="round"/>
<path d="M1692.17 373.496V373.797" stroke="white" stroke-opacity="0.2" stroke-linecap="round"/>
<path d="M1713.39 499.177H1713.45" stroke="white" stroke-opacity="0.2" stroke-linecap="round"/>
<path d="M1722.46 388.23C1722.82 388.23 1722.87 388.212 1723.02 388.539" stroke="white" stroke-opacity="0.2" stroke-linecap="round"/>
<path d="M1814.67 391.938H1815.52" stroke="white" stroke-opacity="0.2" stroke-linecap="round"/>
<path d="M1780.65 299.852H1781.22" stroke="white" stroke-opacity="0.2" stroke-linecap="round"/>
<path d="M1765.19 408.934H1766.32" stroke="white" stroke-opacity="0.2" stroke-linecap="round"/>
<path d="M1807.93 398.118H1809.05" stroke="white" stroke-opacity="0.2" stroke-linecap="round"/>
<path d="M1795.56 441.381C1795.84 441.108 1796.04 441.072 1796.4 441.072" stroke="white" stroke-opacity="0.2" stroke-linecap="round"/>
<path d="M1750.85 318.083C1750.85 318.487 1750.84 318.538 1751.13 318.702" stroke="white" stroke-opacity="0.2" stroke-linecap="round"/>
<path d="M1748.32 214.254V215.181" stroke="white" stroke-opacity="0.2" stroke-linecap="round"/>
<path d="M1248.77 462.527V462.176" stroke="white" stroke-opacity="0.2" stroke-linecap="round"/>
<path d="M1229.96 466.029C1229.96 465.571 1229.95 465.514 1230.28 465.329" stroke="white" stroke-opacity="0.2" stroke-linecap="round"/>
<path d="M1266.3 487.748L1266.62 488.098" stroke="white" stroke-opacity="0.2" stroke-linecap="round"/>
<path d="M1249.73 424.693C1249.73 423.311 1249.48 421.725 1250.04 420.49" stroke="white" stroke-opacity="0.2" stroke-linecap="round"/>
<path d="M1298.49 323.806V324.857" stroke="white" stroke-opacity="0.2" stroke-linecap="round"/>
<path d="M1259.92 213.46C1259.96 213.137 1260.03 213.228 1260.24 213.109" stroke="white" stroke-opacity="0.2" stroke-linecap="round"/>
<path d="M1495.35 452.91C1495.41 453.464 1495.84 453.987 1496.06 454.473" stroke="white" stroke-opacity="0.2" stroke-linecap="round"/>
<path d="M1361.03 236.729C1361.46 237.145 1361.71 237.196 1362.22 237.381" stroke="white" stroke-opacity="0.2" stroke-linecap="round"/>
<path d="M1401.14 296.349C1401.18 296.691 1401.56 296.753 1401.81 296.844" stroke="white" stroke-opacity="0.2" stroke-width="4" stroke-linecap="round"/>
<path d="M1473.81 266.107C1473.86 266.539 1473.94 266.418 1474.23 266.576" stroke="white" stroke-opacity="0.2" stroke-width="4" stroke-linecap="round"/>
<path d="M1571.86 323.744C1571.93 324.414 1572.21 324.494 1572.72 324.681" stroke="white" stroke-opacity="0.2" stroke-width="4" stroke-linecap="round"/>
<path d="M1389.82 427.301H1390.24" stroke="white" stroke-opacity="0.2" stroke-width="4" stroke-linecap="round"/>
<path d="M1572.29 459.634C1572.29 460.452 1572.4 460.571 1573.14 460.571" stroke="white" stroke-opacity="0.2" stroke-width="4" stroke-linecap="round"/>
<path d="M1461.87 403.403C1462.32 403.464 1462.98 403.969 1463.15 404.34" stroke="white" stroke-opacity="0.2" stroke-width="4" stroke-linecap="round"/>
<path d="M1692.52 362.167H1693.37" stroke="white" stroke-opacity="0.2" stroke-width="4" stroke-linecap="round"/>
<path d="M1699.34 395.906C1699.39 396.338 1699.48 396.217 1699.77 396.375" stroke="white" stroke-opacity="0.2" stroke-width="4" stroke-linecap="round"/>
<path d="M1715.97 491.029C1716.01 490.592 1716.18 490.441 1716.4 490.092" stroke="white" stroke-opacity="0.2" stroke-width="4" stroke-linecap="round"/>
<path d="M1656.28 555.226C1656.59 555.525 1656.77 555.561 1657.13 555.694" stroke="white" stroke-opacity="0.2" stroke-width="4" stroke-linecap="round"/>
<path d="M1564.19 691.584C1564.61 691.642 1564.82 692.153 1565.04 692.521" stroke="white" stroke-opacity="0.2" stroke-width="4" stroke-linecap="round"/>
<path d="M1556.52 579.592V580.998" stroke="white" stroke-opacity="0.2" stroke-width="4" stroke-linecap="round"/>
<path d="M1768.41 602.553C1768.47 601.998 1768.84 602.084 1769.26 602.084" stroke="white" stroke-opacity="0.2" stroke-width="4" stroke-linecap="round"/>
<path d="M1692.95 642.852C1693.02 643.5 1693.76 643.617 1694.23 643.789" stroke="white" stroke-opacity="0.2" stroke-width="4" stroke-linecap="round"/>
<path d="M1317.08 99.3999H1317.43" stroke="white" stroke-opacity="0.2" stroke-width="4" stroke-linecap="round"/>
<path d="M1336.17 160.44C1336.5 160.48 1336.61 160.632 1336.87 160.821" stroke="white" stroke-opacity="0.2" stroke-width="4" stroke-linecap="round"/>
<path d="M1461.48 102.833H1461.83" stroke="white" stroke-opacity="0.2" stroke-width="4" stroke-linecap="round"/>
<path d="M1362.08 169.955H1362.38" stroke="white" stroke-opacity="0.2" stroke-width="2" stroke-linecap="round"/>
<path d="M1444.13 291.3C1444.16 291.636 1444.33 291.976 1444.43 292.294" stroke="white" stroke-opacity="0.2" stroke-width="2" stroke-linecap="round"/>
<path d="M1428.14 221.676H1429.65" stroke="white" stroke-opacity="0.2" stroke-width="2" stroke-linecap="round"/>
<path d="M1550.31 182.553C1550.39 182.929 1550.63 182.807 1550.91 182.884" stroke="white" stroke-opacity="0.2" stroke-width="2" stroke-linecap="round"/>
<path d="M1621.2 271.076H1621.5" stroke="white" stroke-opacity="0.2" stroke-width="2" stroke-linecap="round"/>
<line y1="-1" x2="129.992" y2="-1" transform="matrix(-0.359858 -0.933007 0.906444 -0.422326 1427.91 539.821)" stroke="white" stroke-opacity="0.3" stroke-width="2"/>
<line x1="1640.21" y1="551.367" x2="1433.91" y2="551.367" stroke="white" stroke-opacity="0.3" stroke-width="2"/>
<line y1="-1" x2="155.025" y2="-1" transform="matrix(0.208904 -0.977936 0.968282 0.249861 1651.01 543.775)" stroke="white" stroke-opacity="0.3" stroke-width="2"/>
<line y1="-1" x2="103.512" y2="-1" transform="matrix(0.521439 0.853289 -0.804538 0.593902 1629.42 303.845)" stroke="white" stroke-opacity="0.3" stroke-width="2"/>
<line y1="-1" x2="132.045" y2="-1" transform="matrix(-0.999202 -0.0399348 0.0330673 -0.999453 1618.62 297.254)" stroke="white" stroke-opacity="0.3" stroke-width="2"/>
<line y1="-1" x2="146.527" y2="-1" transform="matrix(0.654869 -0.755743 0.690777 0.723068 1381.13 409.309)" stroke="white" stroke-opacity="0.3" stroke-width="2"/>
<line y1="-1" x2="148.239" y2="-1" transform="matrix(-0.881956 0.471332 -0.40458 -0.914503 1381.13 409.309)" stroke="white" stroke-opacity="0.3" stroke-width="2"/>
<line y1="-1" x2="211.808" y2="-1" transform="matrix(-0.911732 -0.410786 0.349465 -0.936949 1678.59 385.58)" stroke="white" stroke-opacity="0.3" stroke-width="2"/>
<line y1="-1" x2="166.064" y2="-1" transform="matrix(0.953415 0.301663 -0.253379 0.967367 1381.13 409.309)" stroke="white" stroke-opacity="0.3" stroke-width="2"/>
<line y1="-1" x2="240.979" y2="-1" transform="matrix(-0.17421 0.984709 -0.977918 -0.208991 1581.44 222.111)" stroke="white" stroke-opacity="0.3" stroke-width="2"/>
</g>
<defs>
<filter id="filter0_f_49_366" x="894.487" y="-157.869" width="1453.36" height="1070.74" filterUnits="userSpaceOnUse" color-interpolation-filters="sRGB">
<feFlood flood-opacity="0" result="BackgroundImageFix"/>
<feBlend mode="normal" in="SourceGraphic" in2="BackgroundImageFix" result="shape"/>
<feGaussianBlur stdDeviation="50" result="effect1_foregroundBlur_49_366"/>
</filter>
<filter id="filter1_f_49_366" x="869.069" y="-83.9956" width="1179.34" height="903.011" filterUnits="userSpaceOnUse" color-interpolation-filters="sRGB">
<feFlood flood-opacity="0" result="BackgroundImageFix"/>
<feBlend mode="normal" in="SourceGraphic" in2="BackgroundImageFix" result="shape"/>
<feGaussianBlur stdDeviation="50" result="effect1_foregroundBlur_49_366"/>
</filter>
<filter id="filter2_f_49_366" x="917.846" y="34.3716" width="890.197" height="668.364" filterUnits="userSpaceOnUse" color-interpolation-filters="sRGB">
<feFlood flood-opacity="0" result="BackgroundImageFix"/>
<feBlend mode="normal" in="SourceGraphic" in2="BackgroundImageFix" result="shape"/>
<feGaussianBlur stdDeviation="50" result="effect1_foregroundBlur_49_366"/>
</filter>
<filter id="filter3_f_49_366" x="643.304" y="304.664" width="1938.98" height="647.533" filterUnits="userSpaceOnUse" color-interpolation-filters="sRGB">
<feFlood flood-opacity="0" result="BackgroundImageFix"/>
<feBlend mode="normal" in="SourceGraphic" in2="BackgroundImageFix" result="shape"/>
<feGaussianBlur stdDeviation="50" result="effect1_foregroundBlur_49_366"/>
</filter>
<filter id="filter4_f_49_366" x="1071.77" y="254.264" width="1515.54" height="617.704" filterUnits="userSpaceOnUse" color-interpolation-filters="sRGB">
<feFlood flood-opacity="0" result="BackgroundImageFix"/>
<feBlend mode="normal" in="SourceGraphic" in2="BackgroundImageFix" result="shape"/>
<feGaussianBlur stdDeviation="50" result="effect1_foregroundBlur_49_366"/>
</filter>
<clipPath id="clip0_49_366">
<rect width="2031" height="1248" fill="white"/>
</clipPath>
</defs>
</svg>
